<?xml version="1.0" encoding="iso-8859-1"?>
<!-- Generator: Adobe Illustrator 18.0.0, SVG Export Plug-In . SVG Version: 6.00 Build 0)  -->
<!DOCTYPE svg PUBLIC "-//W3C//DTD SVG 1.1//EN" "http://www.w3.org/Graphics/SVG/1.1/DTD/svg11.dtd">
<svg xmlns="http://www.w3.org/2000/svg" xmlns:xlink="http://www.w3.org/1999/xlink" version="1.1" id="Capa_1" x="0px" y="0px" viewBox="0 0 423.428 423.428" style="enable-background:new 0 0 423.428 423.428;" xml:space="preserve" width="512px" height="512px">
<g>
	<path d="M366.214,70.428h-113V46.44l21.891-21.891c0.528,0.069,1.063,0.117,1.609,0.117c6.801,0,12.333-5.533,12.333-12.333   C289.047,5.533,283.515,0,276.714,0S264.38,5.533,264.38,12.333c0,0.547,0.048,1.082,0.117,1.61l-26.283,26.284v30.201h-19V22.102   c2.932-2.257,4.833-5.791,4.833-9.768C224.047,5.533,218.515,0,211.714,0S199.38,5.533,199.38,12.333   c0,3.978,1.901,7.512,4.834,9.768v48.326h-19V40.227L158.93,13.942c0.069-0.528,0.117-1.063,0.117-1.609   C159.047,5.533,153.515,0,146.714,0S134.38,5.533,134.38,12.333c0,6.8,5.533,12.333,12.334,12.333c0.547,0,1.081-0.048,1.609-0.117   l21.891,21.891v23.988h-113V133.5h26v289.928h257V133.5h26V70.428z M325.214,408.428h-227V133.5h227V408.428z M351.214,118.5h-11   h-257h-11V85.428h279V118.5z" fill="#FFFFFF"/>
	<path d="M282.214,147.833h-141v76.333h141V147.833z M267.214,209.167h-111v-46.333h111V209.167z" fill="#FFFFFF"/>
	<rect x="175.714" y="178.5" width="72" height="15" fill="#FFFFFF"/>
</g>
<g>
</g>
<g>
</g>
<g>
</g>
<g>
</g>
<g>
</g>
<g>
</g>
<g>
</g>
<g>
</g>
<g>
</g>
<g>
</g>
<g>
</g>
<g>
</g>
<g>
</g>
<g>
</g>
<g>
</g>
</svg>
